<svg width="14" height="14" viewBox="0 0 14 14" fill="none" xmlns="http://www.w3.org/2000/svg">
<g clip-path="url(#clip0_215_2309)">
<path fill-rule="evenodd" clip-rule="evenodd" d="M13.4168 12.8333C13.4168 13.1555 13.1557 13.4167 12.8335 13.4167H1.16683C0.844666 13.4167 0.583496 13.1555 0.583496 12.8333C0.583496 12.5112 0.844666 12.25 1.16683 12.25H12.8335C13.1557 12.25 13.4168 12.5112 13.4168 12.8333Z" fill="#d4d4d4"/>
<path fill-rule="evenodd" clip-rule="evenodd" d="M7.76388 10.9014C7.32533 11.2815 6.67421 11.2815 6.23566 10.9014L3.42445 8.46502C2.60832 7.75767 3.10855 6.41671 4.18854 6.41671H5.24978V1.75004C5.24978 1.10571 5.77211 0.583374 6.41644 0.583374H7.58311C8.22746 0.583374 8.74977 1.10571 8.74977 1.75004V6.41671H9.81103C10.891 6.41671 11.3912 7.75767 10.5751 8.46502L7.76388 10.9014ZM6.61775 9.68868C6.83696 9.87867 7.16258 9.87867 7.3818 9.68868L9.81103 7.58337H8.45811C7.97487 7.58337 7.58311 7.19161 7.58311 6.70837V1.75004H6.41644V6.70837C6.41644 7.19161 6.02467 7.58337 5.54144 7.58337H4.18854L6.61775 9.68868Z" fill="#d4d4d4"/>
</g>
<defs>
<clipPath id="clip0_215_2309">
<rect width="14" height="14" fill="white"/>
</clipPath>
</defs>
</svg>
